<?xml version="1.0" encoding="UTF-8"?>
<svg width="48" height="48" viewBox="0 0 48 48" xmlns="http://www.w3.org/2000/svg">
  <!-- Background circle -->
  <circle cx="24" cy="24" r="22" fill="#0078d4" stroke="#005a9e" stroke-width="2"/>
  
  <!-- Cloud shape -->
  <path d="M16 28c-2.2 0-4-1.8-4-4 0-2.2 1.8-4 4-4 0.3 0 0.6 0 0.9 0.1C17.6 17.8 19.6 16 22 16c3.3 0 6 2.7 6 6 0 0.2 0 0.4 0 0.6 1.7 0.2 3 1.6 3 3.4 0 1.9-1.5 3.4-3.4 3.4H16z" fill="white"/>
  
  <!-- Sync arrows -->
  <path d="M24 32l-3-3h2v-4h2v4h2l-3 3z" fill="#0078d4"/>
  <path d="M24 20l3 3h-2v4h-2v-4h-2l3-3z" fill="#0078d4"/>
</svg>
